<?xml version="1.0" encoding="UTF-8"?>
<svg version="1.1" xmlns="http://www.w3.org/2000/svg" width="135" height="135">
<path d="M0 0 C2.97783503 0.98835506 4.33793477 2.13728869 6.53315735 4.36268616 C7.6437426 5.47372459 7.6437426 5.47372459 8.77676392 6.60720825 C9.56028732 7.4113768 10.34381073 8.21554535 11.15107727 9.04408264 C11.9652562 9.86392136 12.77943512 10.68376007 13.61828613 11.52844238 C16.21557602 14.14811558 18.79861123 16.78135579 21.38154602 19.41517639 C23.14039015 21.19408276 24.90014516 22.97208901 26.6608429 24.74916077 C30.97419984 29.10661122 35.27593586 33.47528174 39.56904602 37.85267639 C38.17016223 40.99940962 36.51976964 43.17128899 34.11665344 45.62733459 C33.41219589 46.35100723 32.70773834 47.07467987 31.98193359 47.82028198 C31.22048538 48.59022995 30.45903717 49.36017792 29.67451477 50.15345764 C28.89014542 50.94922714 28.10577606 51.74499664 27.29763794 52.56488037 C25.6385861 54.24280697 23.97661993 55.91785631 22.31196594 57.59022522 C19.76254474 60.15913182 17.2352207 62.74855389 14.7077179 65.33900452 C13.0938066 66.96596909 11.47861472 68.59166457 9.86201477 70.21595764 C9.10663925 70.99602676 8.35126373 71.77609589 7.57299805 72.57980347 C6.85908401 73.2877153 6.14516998 73.99562714 5.40962219 74.72499084 C4.78722153 75.35468277 4.16482086 75.98437469 3.52355957 76.63314819 C1.56904602 77.85267639 1.56904602 77.85267639 -0.98788452 77.69366455 C-4.50123581 76.48424874 -6.75122427 74.19119882 -9.30595398 71.60267639 C-10.0716571 70.88531311 -10.0716571 70.88531311 -10.85282898 70.15345764 C-12.29814148 68.71205139 -12.29814148 68.71205139 -14.43095398 65.85267639 C-14.28338453 61.11133375 -12.03085919 58.98312279 -8.73954773 55.77064514 C-8.04249474 55.08208183 -8.04249474 55.08208183 -7.33135986 54.37960815 C-5.85288715 52.92342904 -4.36109241 51.48181735 -2.86845398 50.04017639 C-1.86037891 49.05217541 -0.85320668 48.06325235 0.1530304 47.07337952 C2.61467056 44.65571246 5.08845275 42.25091055 7.56904602 39.85267639 C6.04088946 36.17661379 3.84456251 33.97567457 0.96357727 31.26283264 C-0.38703796 29.96249084 -0.38703796 29.96249084 -1.76493835 28.63587952 C-3.67148599 26.81806921 -5.58561432 25.00817748 -7.50712585 23.20619202 C-8.40366882 22.33800842 -9.30021179 21.46982483 -10.22392273 20.57533264 C-11.05432068 19.78908508 -11.88471863 19.00283752 -12.74028015 18.19276428 C-14.43095398 15.85267639 -14.43095398 15.85267639 -14.33940125 13.24061584 C-13.03090629 9.80111324 -10.75156662 7.51473012 -8.18095398 4.97767639 C-7.70271179 4.46720764 -7.2244696 3.95673889 -6.73173523 3.43080139 C-3.1215421 -0.18917546 -3.1215421 -0.18917546 0 0 Z " fill="#00CD19" transform="translate(93.43095397949219,29.147323608398438)"/>
<path d="M0 0 C3.51335129 1.20941581 5.76333975 3.50246573 8.31806946 6.09098816 C8.82853821 6.56923035 9.33900696 7.04747253 9.86494446 7.54020691 C11.31025696 8.98161316 11.31025696 8.98161316 13.44306946 11.84098816 C13.29550001 16.5823308 11.04297467 18.71054176 7.75166321 21.92301941 C7.28696121 22.38206161 6.82225922 22.84110382 6.34347534 23.3140564 C4.86500263 24.77023551 3.37320789 26.2118472 1.88056946 27.65348816 C0.87249439 28.64148914 -0.13467784 29.6304122 -1.14091492 30.62028503 C-3.60255508 33.03795209 -6.07633727 35.442754 -8.55693054 37.84098816 C-7.02877398 41.51705076 -4.83244703 43.71798998 -1.95146179 46.43083191 C-1.05105164 47.29772644 -0.15064148 48.16462097 0.77705383 49.05778503 C2.68360147 50.87559534 4.5977298 52.68548707 6.51924133 54.48747253 C7.4157843 55.35565613 8.31232727 56.22383972 9.23603821 57.11833191 C10.48163513 58.29770325 10.48163513 58.29770325 11.75239563 59.50090027 C13.44306946 61.84098816 13.44306946 61.84098816 13.35151672 64.45304871 C12.04302176 67.89255131 9.76368209 70.17893443 7.19306946 72.71598816 C6.47570618 73.48169128 6.47570618 73.48169128 5.74385071 74.26286316 C4.30244446 75.70817566 4.30244446 75.70817566 1.44306946 77.84098816 C-2.69407975 77.59026365 -4.66116854 76.2301627 -7.52104187 73.33097839 C-8.26143204 72.5902861 -9.0018222 71.84959381 -9.76464844 71.0864563 C-10.93993355 69.88020348 -10.93993355 69.88020348 -12.13896179 68.64958191 C-13.36023018 67.41982384 -13.36023018 67.41982384 -14.60617065 66.16522217 C-17.20346054 63.54554897 -19.78649575 60.91230876 -22.36943054 58.27848816 C-24.12827467 56.49958179 -25.88802968 54.72157554 -27.64872742 52.94450378 C-31.96208436 48.58705333 -36.26382038 44.21838281 -40.55693054 39.84098816 C-39.15804675 36.69425493 -37.50765416 34.52237556 -35.10453796 32.06632996 C-34.40008041 31.34265732 -33.69562286 30.61898468 -32.96981812 29.87338257 C-32.2083699 29.1034346 -31.44692169 28.33348663 -30.66239929 27.54020691 C-29.48584526 26.34655266 -29.48584526 26.34655266 -28.28552246 25.12878418 C-26.62647062 23.45085758 -24.96450446 21.77580824 -23.29985046 20.10343933 C-20.75042926 17.53453273 -18.22310522 14.94511066 -15.69560242 12.35466003 C-14.08169112 10.72769546 -12.46649924 9.10199998 -10.84989929 7.47770691 C-10.09452377 6.69763779 -9.33914825 5.91756866 -8.56088257 5.11386108 C-7.84696854 4.40594925 -7.1330545 3.69803741 -6.39750671 2.96867371 C-5.77510605 2.33898178 -5.15270538 1.70928986 -4.51144409 1.06051636 C-2.55693054 -0.15901184 -2.55693054 -0.15901184 0 0 Z " fill="#00E500" transform="translate(43.55693054199219,29.159011840820313)"/>
<path d="M0 0 C3.26318571 1.64099685 5.47636661 3.62360561 8.0859375 6.17578125 C8.98054688 7.02785156 9.87515625 7.87992188 10.796875 8.7578125 C12.7109375 11.36328125 12.7109375 11.36328125 12.87890625 13.79296875 C11.18777538 17.51458786 8.59912249 19.90045125 5.6484375 22.67578125 C5.08060547 23.22556641 4.51277344 23.77535156 3.92773438 24.34179688 C2.53102825 25.6915549 1.12214913 27.0286965 -0.2890625 28.36328125 C-4.26221171 26.74178121 -7.08206688 24.00745252 -10.1015625 21.05078125 C-10.61654297 20.57705078 -11.13152344 20.10332031 -11.66210938 19.61523438 C-13.92187401 17.40387166 -15.25238732 16.06118843 -15.421875 12.8359375 C-13.92619455 9.57122809 -11.94005375 7.59407344 -9.3515625 5.11328125 C-8.45566406 4.241875 -7.55976562 3.37046875 -6.63671875 2.47265625 C-2.96640798 -0.82512714 -2.96640798 -0.82512714 0 0 Z " fill="#00E605" transform="translate(69.2890625,104.63671875)"/>
<path d="M0 0 C3.38679379 1.55096164 5.80077304 3.78224408 8.3828125 6.3984375 C8.89328125 6.87667969 9.40375 7.35492188 9.9296875 7.84765625 C12.14238059 10.05436909 13.46675527 11.45910822 13.65625 14.640625 C12.10528836 18.02741879 9.87400592 20.44139804 7.2578125 23.0234375 C6.54044922 23.78914063 6.54044922 23.78914063 5.80859375 24.5703125 C3.60188091 26.78300559 2.19714178 28.10738027 -0.984375 28.296875 C-4.37116879 26.74591336 -6.78514804 24.51463092 -9.3671875 21.8984375 C-9.87765625 21.42019531 -10.388125 20.94195312 -10.9140625 20.44921875 C-13.12675559 18.24250591 -14.45113027 16.83776678 -14.640625 13.65625 C-13.08966336 10.26945621 -10.85838092 7.85547696 -8.2421875 5.2734375 C-7.76394531 4.76296875 -7.28570312 4.2525 -6.79296875 3.7265625 C-4.58625591 1.51386941 -3.18151678 0.18949473 0 0 Z " fill="#4EF777" transform="translate(68.4921875,53.8515625)"/>
<path d="M0 0 C3.97314921 1.62150004 6.79300438 4.35582873 9.8125 7.3125 C10.5849707 8.0230957 10.5849707 8.0230957 11.37304688 8.74804688 C13.63434415 10.9609094 14.96530477 12.29850586 15.125 15.52734375 C13.65161313 18.76572532 11.72844165 20.76486234 9.1875 23.25 C8.31480469 24.12140625 7.44210938 24.9928125 6.54296875 25.890625 C2.80820643 28.98858453 2.80820643 28.98858453 0 29 C-1.96484375 27.7421875 -1.96484375 27.7421875 -3.9375 25.875 C-4.62585937 25.2253125 -5.31421875 24.575625 -6.0234375 23.90625 C-6.67570312 23.2771875 -7.32796875 22.648125 -8 22 C-8.54914062 21.5359375 -9.09828125 21.071875 -9.6640625 20.59375 C-11.0625 19.375 -11.0625 19.375 -13 17 C-13 13.32473779 -11.71584152 11.45039932 -9.27734375 8.88671875 C-8.17411577 7.8099154 -7.06045266 6.74371719 -5.9375 5.6875 C-5.08575195 4.86282227 -5.08575195 4.86282227 -4.21679688 4.02148438 C-2.82009075 2.67172635 -1.41121163 1.33458475 0 0 Z " fill="#00E605" transform="translate(67,3)"/>
<path d="M0 0 C0 9.57 0 19.14 0 29 C-9.06451613 21.23041475 -9.06451613 21.23041475 -11 19.4375 C-11.598125 18.89996094 -12.19625 18.36242187 -12.8125 17.80859375 C-14 16 -14 16 -13.99609375 13.61328125 C-12.6764532 10.15116547 -10.72892506 8.30548341 -8.0625 5.75 C-7.16660156 4.87859375 -6.27070312 4.0071875 -5.34765625 3.109375 C-1.88703704 0 -1.88703704 0 0 0 Z " fill="#5DF876" transform="translate(68,104)"/>
<path d="M0 0 C3.89558519 1.9477926 6.20635297 3.81423651 9.3125 6.8125 C10.66794922 8.09060547 10.66794922 8.09060547 12.05078125 9.39453125 C14 12 14 12 14.1328125 14.4609375 C12.59373827 17.91058665 10.25657824 20.24850432 7.5625 22.8125 C6.80743164 23.56563477 6.80743164 23.56563477 6.03710938 24.33398438 C2.28131378 28 2.28131378 28 0 28 C0 18.76 0 9.52 0 0 Z " fill="#00E604" transform="translate(68,54)"/>
<path d="M0 0 C0 8.91 0 17.82 0 27 C-4.5466642 25.86333395 -6.00780784 24.482955 -9.3125 21.25 C-10.21613281 20.38890625 -11.11976562 19.5278125 -12.05078125 18.640625 C-14 16 -14 16 -14.1328125 13.53515625 C-12.59260428 10.08827647 -10.25522258 7.75020548 -7.5625 5.1875 C-7.05912109 4.68541016 -6.55574219 4.18332031 -6.03710938 3.66601562 C-2.28131378 0 -2.28131378 0 0 0 Z " fill="#5EF878" transform="translate(68,4)"/>
</svg>
